<svg xmlns="http://www.w3.org/2000/svg" viewBox="0 0 64 64">
  <rect width="64" height="64" rx="13" fill="#2F45C5"/>
  <g fill="none" stroke="#FBFBF9" stroke-width="2.5" stroke-linecap="round" opacity="0.95">
    <path d="M18 12 C18 28 16 38 19 50"/>
    <path d="M27.3 12 C27.3 28 26 38 28.5 50"/>
    <path d="M36.7 12 C36.7 28 35.5 38 38.5 50"/>
    <path d="M46 12 C46 28 45 38 47.5 50"/>
    <path d="M14 17 C26 17.5 38 17.5 50 17"/>
    <path d="M14 27.5 C26 28.5 38 28.5 50 27.5"/>
    <path d="M13.5 38 C26 39.5 38 39.5 50.5 38"/>
  </g>
  <path d="M13 48.5 C26 50.8 38 50.8 51 48.5" fill="none" stroke="#FBFBF9" stroke-width="3.2" stroke-linecap="round"/>
</svg>
